<svg width="16" height="28" viewBox="0 0 16 28" fill="none" xmlns="http://www.w3.org/2000/svg">
<g clip-path="url(#clip0)">
<path d="M13.1799 19.8785C13.1799 23.0772 10.7222 25.6796 7.70111 25.6796C4.68006 25.6796 2.22229 23.0772 2.22229 19.8785V5.80111C2.22229 3.88191 3.69701 2.32044 5.50958 2.32044C7.32216 2.32044 8.79688 3.88191 8.79688 5.80111V19.8785C8.79688 20.5181 8.30521 21.0387 7.70111 21.0387C7.09701 21.0387 6.60535 20.5181 6.60535 19.8785V6.88398H4.41382V19.8785C4.41382 21.7977 5.88853 23.3591 7.70111 23.3591C9.51369 23.3591 10.9884 21.7977 10.9884 19.8785V5.80111C10.9884 2.60234 8.53064 0 5.50958 0C2.48853 0 0.0307617 2.60234 0.0307617 5.80111V19.8785C0.0307617 24.3568 3.47158 28 7.70111 28C11.9306 28 15.3715 24.3568 15.3715 19.8785V6.88398H13.1799V19.8785Z" fill="#22997B"/>
</g>
<defs>
<clipPath id="clip0">
<rect width="15.8667" height="28" fill="white"/>
</clipPath>
</defs>
</svg>
