<svg width="6" height="10" viewBox="0 0 6 10" fill="none" xmlns="http://www.w3.org/2000/svg">
<g clip-path="url(#clip0)">
<path d="M4.70736 7.09945C4.70736 8.24186 3.82959 9.17127 2.75064 9.17127C1.67169 9.17127 0.793919 8.24186 0.793919 7.09945V2.07182C0.793919 1.3864 1.3206 0.828729 1.96795 0.828729C2.6153 0.828729 3.14199 1.3864 3.14199 2.07182V7.09945C3.14199 7.32789 2.96639 7.51381 2.75064 7.51381C2.53489 7.51381 2.3593 7.32789 2.3593 7.09945V2.45856H1.57661V7.09945C1.57661 7.78488 2.10329 8.34254 2.75064 8.34254C3.39799 8.34254 3.92467 7.78488 3.92467 7.09945V2.07182C3.92467 0.929407 3.0469 0 1.96795 0C0.889004 0 0.0112305 0.929407 0.0112305 2.07182V7.09945C0.0112305 8.69885 1.24009 10 2.75064 10C4.26119 10 5.49005 8.69885 5.49005 7.09945V2.45856H4.70736V7.09945Z" fill="#666666"/>
</g>
<defs>
<clipPath id="clip0">
<rect width="5.66667" height="10" fill="white"/>
</clipPath>
</defs>
</svg>
