<svg width="1440" height="1043" viewBox="0 0 1440 1043" fill="none" xmlns="http://www.w3.org/2000/svg">
<g clip-path="url(#clip0)">
<path d="M1439 10H0V1043H1439V10Z" fill="url(#paint0_radial)" fill-opacity="0.1"/>
<g opacity="0.51">
<g opacity="0.51">
<path opacity="0.51" d="M1080.65 1072.1L1011.22 888.593L1148.32 602.722L1257.02 766.953L1080.65 1072.1Z" fill="url(#paint1_linear)"/>
<path opacity="0.51" d="M948.286 1301.54L903.404 1113.29L1006.32 898.935L1074.34 1082.97L948.286 1301.54Z" fill="url(#paint2_linear)"/>
<path opacity="0.51" d="M1133.95 1430.01L1047.34 1167.45L1211.79 889.82L1354.85 1148.87L1133.95 1430.01Z" fill="url(#paint3_linear)"/>
<path opacity="0.51" d="M1029.46 1242.29L988.258 1105.58L1071.88 948.011L1127.11 1082.62L1029.46 1242.29Z" fill="url(#paint4_linear)"/>
<g opacity="0.51">
<path opacity="0.51" d="M1242.82 1081.57L1122.9 839.867L1335.91 436.213L1549.45 632.519L1242.82 1081.57Z" fill="url(#paint5_linear)"/>
<path opacity="0.51" d="M1039.8 1379.01L969.499 1130.47L1115.54 853.889L1232.65 1096.47L1039.8 1379.01Z" fill="url(#paint6_linear)"/>
</g>
</g>
</g>
<g opacity="0.51">
<path opacity="0.51" d="M1370.8 873.695L1475.12 1022.68L1321.71 1214.78L1244.22 1061.24L1370.8 873.695Z" fill="url(#paint7_linear)"/>
<path opacity="0.51" d="M1494.4 956.774L1581.18 1071.93L1457.76 1210.57L1387.81 1093.49L1494.4 956.774Z" fill="url(#paint8_linear)"/>
<g opacity="0.51">
<path opacity="0.51" d="M1469.68 858.096L1617.82 1043.71L1409.37 1276.3L1305.76 1084.72L1469.68 858.096Z" fill="url(#paint9_linear)"/>
</g>
<g opacity="0.51">
<path opacity="0.51" d="M1252.11 812.349L1177.25 693.514L1304.88 446.378L1408.49 546.985L1252.11 812.349Z" fill="url(#paint10_linear)"/>
<path opacity="0.51" d="M1125.88 1026.71L1071.36 898.759L1172.52 702.804L1246.33 822.165L1125.88 1026.71Z" fill="url(#paint11_linear)"/>
<path opacity="0.51" d="M1311.72 1052.65L1222.31 892.8L1370.45 645.314L1498.26 791.141L1311.72 1052.65Z" fill="url(#paint12_linear)"/>
<path opacity="0.51" d="M1206.7 953.795L1160.77 865.282L1240.01 722.609L1296.82 806.565L1206.7 953.795Z" fill="url(#paint13_linear)"/>
<g opacity="0.51">
<path opacity="0.51" d="M1402.01 774.14L1286.47 629.189L1471.08 295.819L1644.82 404.138L1402.01 774.14Z" fill="url(#paint14_linear)"/>
<path opacity="0.51" d="M1220.9 1050.37L1142.19 890.171L1279.81 641.283L1393.42 787.285L1220.9 1050.37Z" fill="url(#paint15_linear)"/>
</g>
</g>
</g>
<g opacity="0.51">
<g opacity="0.51">
<g opacity="0.51">
<g opacity="0.51">
<g opacity="0.51">
<g opacity="0.85">
<g opacity="0.85">
<mask id="mask0" style="mask-type:alpha" maskUnits="userSpaceOnUse" x="1168" y="376" width="500" height="756">
<g opacity="0.85">
<g opacity="0.85">
<path opacity="0.85" d="M1388.68 850.734C1543.49 622.879 1684.8 384.683 1665.86 376.445C1647.63 368.382 1490.89 583.968 1349.06 804.988C1234.4 983.766 1162 1116.27 1168.66 1129.94C1175.85 1143.97 1265.08 1032.84 1388.68 850.734Z" fill="url(#paint16_radial)"/>
</g>
</g>
</mask>
<g mask="url(#mask0)">
<path opacity="0.85" d="M1388.68 850.734C1543.49 622.879 1684.8 384.683 1665.86 376.445C1647.63 368.382 1490.89 583.968 1349.06 804.988C1234.4 983.766 1162 1116.27 1168.66 1129.94C1175.85 1143.97 1265.08 1032.84 1388.68 850.734Z" fill="url(#paint17_radial)"/>
</g>
</g>
</g>
</g>
</g>
</g>
<g opacity="0.51">
<g opacity="0.51">
<g opacity="0.51">
<g opacity="0.85">
<g opacity="0.85">
<mask id="mask1" style="mask-type:alpha" maskUnits="userSpaceOnUse" x="1022" y="611" width="324" height="558">
<g opacity="0.85">
<g opacity="0.85">
<path opacity="0.85" d="M1170.59 953.795C1268.77 788.162 1355.02 620.776 1345.03 611.486C1335.21 602.372 1239.31 750.829 1147.27 913.307C1069.61 1050.37 1018.59 1156.06 1022.8 1167.8C1027.18 1179.9 1088.19 1092.61 1170.59 953.795Z" fill="url(#paint18_radial)"/>
</g>
</g>
</mask>
<g mask="url(#mask1)">
<path opacity="0.85" d="M1170.59 953.795C1268.77 788.162 1355.02 620.776 1345.03 611.486C1335.21 602.372 1239.31 750.829 1147.27 913.307C1069.61 1050.37 1018.59 1156.06 1022.8 1167.8C1027.18 1179.9 1088.19 1092.61 1170.59 953.795Z" fill="url(#paint19_radial)"/>
</g>
</g>
</g>
</g>
</g>
</g>
</g>
</g>
<g opacity="0.51">
<path opacity="0.51" d="M268.579 216.771L345.719 -431.039L-170.592 -473.455L-140.963 65.5104L268.579 216.771Z" fill="url(#paint20_linear)"/>
<path opacity="0.51" d="M21.0301 233.597L24.8871 -83.8224L-222.661 -149.55L-199.169 140.527L21.0301 233.597Z" fill="url(#paint21_linear)"/>
<g opacity="0.51">
<path opacity="0.51" d="M72.2229 429.203L91.5079 -86.8016L-323.82 -193.192L-271.4 255.332L72.2229 429.203Z" fill="url(#paint22_linear)"/>
</g>
<g opacity="0.51">
<path opacity="0.51" d="M-117.296 736.631L-102.043 982.89L202.835 1239.67L242.456 995.335L-117.296 736.631Z" fill="url(#paint23_linear)"/>
<path opacity="0.51" d="M-241.245 299.149L-204.779 644.613L127.097 877.901L157.077 507.199L-241.245 299.149Z" fill="url(#paint24_linear)"/>
<g opacity="0.51">
<path opacity="0.51" d="M63.457 642.159L51.0094 981.137L503.504 1333.61L646.914 998.49L63.457 642.159Z" fill="url(#paint25_linear)"/>
<path opacity="0.51" d="M-322.768 406.066L-274.906 727.342L35.2308 968.868L44.3474 630.416L-322.768 406.066Z" fill="url(#paint26_linear)"/>
</g>
</g>
</g>
<g opacity="0.51">
<path opacity="0.51" d="M276.994 517.189L318.544 221.854L19.9783 113.36L16.9979 387.312L276.994 517.189Z" fill="url(#paint27_linear)"/>
<path opacity="0.51" d="M629.909 693.339L740.359 375.218L333.271 227.112L289.442 523.499L629.909 693.339Z" fill="url(#paint28_linear)"/>
<path opacity="0.51" d="M317.668 814.277L360.095 589.752L85.0211 448.833L75.554 664.769L317.668 814.277Z" fill="url(#paint29_linear)"/>
<path opacity="0.51" d="M416.372 655.305L456.169 478.629L243.333 383.456L223.522 553.646L416.372 655.305Z" fill="url(#paint30_linear)"/>
<g opacity="0.51">
<path opacity="0.51" d="M122.714 599.568L140.947 327.369L-125.535 209.41L-112.387 464.607L122.714 599.568Z" fill="url(#paint31_linear)"/>
<path opacity="0.51" d="M438.988 781.151L512.796 491.95L153.921 333.152L133.935 606.053L438.988 781.151Z" fill="url(#paint32_linear)"/>
</g>
<g opacity="0.51">
<path opacity="0.51" d="M213.354 945.908L188.984 1120.66L462.831 1337.99L529.451 1169.21L213.354 945.908Z" fill="url(#paint33_linear)"/>
<path opacity="0.51" d="M-42.0842 765.552L-38.5779 940.124L178.641 1112.59L201.607 937.67L-42.0842 765.552Z" fill="url(#paint34_linear)"/>
<path opacity="0.51" d="M157.427 639.706L137.441 869.138L435.306 1076.31L506.31 843.022L157.427 639.706Z" fill="url(#paint35_linear)"/>
<path opacity="0.51" d="M88.1769 807.091L81.3395 932.411L245.963 1054.93L267.352 929.431L88.1769 807.091Z" fill="url(#paint36_linear)"/>
<g opacity="0.51">
<path opacity="0.51" d="M404.801 912.255L347.296 1138.01L730.892 1424.75L874.126 1210.92L404.801 912.255Z" fill="url(#paint37_linear)"/>
<path opacity="0.51" d="M54.5158 689.308L47.1525 913.482L333.446 1127.49L388.145 901.739L54.5158 689.308Z" fill="url(#paint38_linear)"/>
</g>
</g>
</g>
<g opacity="0.51">
<g opacity="0.51">
<g opacity="0.51">
<g opacity="0.51">
<g opacity="0.51">
<g opacity="0.85">
<g opacity="0.85">
<mask id="mask2" style="mask-type:alpha" maskUnits="userSpaceOnUse" x="-47" y="622" width="961" height="612">
<g opacity="0.85">
<g opacity="0.85">
<path opacity="0.85" d="M350.102 831.454C644.986 1012.51 930.053 1212.5 912.696 1231.95C895.866 1250.71 605.013 1084.55 328.362 904.543C104.657 758.716 -46.8178 644.438 -46.1165 624.983C-45.4153 605.352 114.124 686.679 350.102 831.454Z" fill="url(#paint39_radial)"/>
</g>
</g>
</mask>
<g mask="url(#mask2)">
<path opacity="0.85" d="M350.102 831.454C644.986 1012.51 930.053 1212.5 912.696 1231.95C895.866 1250.71 605.013 1084.55 328.362 904.543C104.657 758.716 -46.8178 644.438 -46.1165 624.983C-45.4153 605.352 114.124 686.679 350.102 831.454Z" fill="url(#paint40_radial)"/>
</g>
</g>
</g>
</g>
</g>
</g>
<g opacity="0.51">
<g opacity="0.51">
<g opacity="0.51">
<g opacity="0.85">
<g opacity="0.85">
<mask id="mask3" style="mask-type:alpha" maskUnits="userSpaceOnUse" x="-234" y="654" width="658" height="476">
<g opacity="0.85">
<g opacity="0.85">
<path opacity="0.85" d="M46.8018 825.845C244.911 964.837 430.222 1112.24 423.384 1128.02C416.722 1143.44 230.184 1023.03 40.8411 884.211C-118.873 767.304 -231.953 672.481 -233.181 656.882C-234.408 640.932 -119.224 709.289 46.8018 825.845Z" fill="url(#paint41_radial)"/>
</g>
</g>
</mask>
<g mask="url(#mask3)">
<path opacity="0.85" d="M46.8018 825.845C244.911 964.837 430.222 1112.24 423.384 1128.02C416.722 1143.44 230.184 1023.03 40.8411 884.211C-118.873 767.304 -231.953 672.481 -233.181 656.882C-234.408 640.932 -119.224 709.289 46.8018 825.845Z" fill="url(#paint42_radial)"/>
</g>
</g>
</g>
</g>
</g>
</g>
<g opacity="0.51">
<g opacity="0.51">
<g opacity="0.51">
<g opacity="0.85">
<g opacity="0.85">
<mask id="mask4" style="mask-type:alpha" maskUnits="userSpaceOnUse" x="-377" y="-30" width="880" height="345">
<g opacity="0.85">
<g opacity="0.85">
<path opacity="0.85" d="M-28.76 48.5091C242.106 139.476 513.498 266.198 501.927 304.934C490.882 342.267 221.769 268.302 -32.9676 167.344C-235.284 87.2445 -373.61 11.0007 -376.941 -17.2183C-380.097 -46.1384 -241.42 -22.6518 -28.76 48.5091Z" fill="url(#paint43_radial)"/>
</g>
</g>
</mask>
<g mask="url(#mask4)">
<path opacity="0.85" d="M-28.76 48.5091C242.106 139.476 513.498 266.198 501.927 304.934C490.882 342.267 221.769 268.302 -32.9676 167.344C-235.284 87.2445 -373.61 11.0007 -376.941 -17.2183C-380.097 -46.1384 -241.42 -22.6518 -28.76 48.5091Z" fill="url(#paint44_radial)"/>
</g>
</g>
</g>
</g>
</g>
</g>
</g>
</g>
</g>
<g clip-path="url(#clip1)">
<g opacity="0.51">
<g opacity="0.51">
<path opacity="0.51" d="M1083.65 1072.1L1014.22 888.593L1151.32 602.722L1260.02 766.953L1083.65 1072.1Z" fill="url(#paint45_linear)"/>
<path opacity="0.51" d="M951.286 1301.54L906.404 1113.29L1009.32 898.935L1077.34 1082.97L951.286 1301.54Z" fill="url(#paint46_linear)"/>
<path opacity="0.51" d="M1136.95 1430.01L1050.34 1167.45L1214.79 889.82L1357.85 1148.87L1136.95 1430.01Z" fill="url(#paint47_linear)"/>
<path opacity="0.51" d="M1032.46 1242.29L991.258 1105.58L1074.88 948.011L1130.11 1082.62L1032.46 1242.29Z" fill="url(#paint48_linear)"/>
<g opacity="0.51">
<path opacity="0.51" d="M1245.82 1081.57L1125.9 839.867L1338.91 436.213L1552.45 632.519L1245.82 1081.57Z" fill="url(#paint49_linear)"/>
<path opacity="0.51" d="M1042.8 1379.01L972.499 1130.47L1118.54 853.889L1235.65 1096.47L1042.8 1379.01Z" fill="url(#paint50_linear)"/>
</g>
</g>
</g>
<g opacity="0.51">
<path opacity="0.51" d="M1373.8 873.695L1478.12 1022.68L1324.71 1214.78L1247.22 1061.24L1373.8 873.695Z" fill="url(#paint51_linear)"/>
<path opacity="0.51" d="M1497.4 956.774L1584.18 1071.93L1460.76 1210.57L1390.81 1093.49L1497.4 956.774Z" fill="url(#paint52_linear)"/>
<g opacity="0.51">
<path opacity="0.51" d="M1472.68 858.096L1620.82 1043.71L1412.37 1276.3L1308.76 1084.72L1472.68 858.096Z" fill="url(#paint53_linear)"/>
</g>
<g opacity="0.51">
<path opacity="0.51" d="M1255.11 812.349L1180.25 693.514L1307.88 446.378L1411.49 546.985L1255.11 812.349Z" fill="url(#paint54_linear)"/>
<path opacity="0.51" d="M1128.88 1026.71L1074.36 898.759L1175.52 702.804L1249.33 822.165L1128.88 1026.71Z" fill="url(#paint55_linear)"/>
<path opacity="0.51" d="M1314.72 1052.65L1225.31 892.8L1373.45 645.314L1501.26 791.141L1314.72 1052.65Z" fill="url(#paint56_linear)"/>
<path opacity="0.51" d="M1209.7 953.795L1163.77 865.282L1243.01 722.609L1299.82 806.565L1209.7 953.795Z" fill="url(#paint57_linear)"/>
<g opacity="0.51">
<path opacity="0.51" d="M1405.01 774.14L1289.47 629.189L1474.08 295.819L1647.82 404.138L1405.01 774.14Z" fill="url(#paint58_linear)"/>
<path opacity="0.51" d="M1223.9 1050.37L1145.19 890.171L1282.81 641.283L1396.42 787.285L1223.9 1050.37Z" fill="url(#paint59_linear)"/>
</g>
</g>
</g>
<g opacity="0.51">
<g opacity="0.51">
<g opacity="0.51">
<g opacity="0.51">
<g opacity="0.51">
<g opacity="0.85">
<g opacity="0.85">
<mask id="mask5" style="mask-type:alpha" maskUnits="userSpaceOnUse" x="1171" y="376" width="500" height="756">
<g opacity="0.85">
<g opacity="0.85">
<path opacity="0.85" d="M1391.68 850.734C1546.49 622.879 1687.8 384.683 1668.86 376.445C1650.63 368.382 1493.89 583.968 1352.06 804.988C1237.4 983.766 1165 1116.27 1171.66 1129.94C1178.85 1143.97 1268.08 1032.84 1391.68 850.734Z" fill="url(#paint60_radial)"/>
</g>
</g>
</mask>
<g mask="url(#mask5)">
<path opacity="0.85" d="M1391.68 850.734C1546.49 622.879 1687.8 384.683 1668.86 376.445C1650.63 368.382 1493.89 583.968 1352.06 804.988C1237.4 983.766 1165 1116.27 1171.66 1129.94C1178.85 1143.97 1268.08 1032.84 1391.68 850.734Z" fill="url(#paint61_radial)"/>
</g>
</g>
</g>
</g>
</g>
</g>
<g opacity="0.51">
<g opacity="0.51">
<g opacity="0.51">
<g opacity="0.85">
<g opacity="0.85">
<mask id="mask6" style="mask-type:alpha" maskUnits="userSpaceOnUse" x="1025" y="611" width="324" height="558">
<g opacity="0.85">
<g opacity="0.85">
<path opacity="0.85" d="M1173.59 953.795C1271.77 788.162 1358.02 620.776 1348.03 611.486C1338.21 602.372 1242.31 750.829 1150.27 913.307C1072.61 1050.37 1021.59 1156.06 1025.8 1167.8C1030.18 1179.9 1091.19 1092.61 1173.59 953.795Z" fill="url(#paint62_radial)"/>
</g>
</g>
</mask>
<g mask="url(#mask6)">
<path opacity="0.85" d="M1173.59 953.795C1271.77 788.162 1358.02 620.776 1348.03 611.486C1338.21 602.372 1242.31 750.829 1150.27 913.307C1072.61 1050.37 1021.59 1156.06 1025.8 1167.8C1030.18 1179.9 1091.19 1092.61 1173.59 953.795Z" fill="url(#paint63_radial)"/>
</g>
</g>
</g>
</g>
</g>
</g>
</g>
</g>
<g opacity="0.51">
<path opacity="0.51" d="M268.579 216.771L345.719 -431.039L-170.592 -473.455L-140.963 65.5104L268.579 216.771Z" fill="url(#paint64_linear)"/>
<path opacity="0.51" d="M21.0301 233.597L24.8871 -83.8224L-222.661 -149.55L-199.169 140.527L21.0301 233.597Z" fill="url(#paint65_linear)"/>
<g opacity="0.51">
<path opacity="0.51" d="M72.2229 429.203L91.5079 -86.8016L-323.82 -193.192L-271.4 255.332L72.2229 429.203Z" fill="url(#paint66_linear)"/>
</g>
<g opacity="0.51">
<path opacity="0.51" d="M-117.296 736.631L-102.043 982.89L202.835 1239.67L242.456 995.335L-117.296 736.631Z" fill="url(#paint67_linear)"/>
<path opacity="0.51" d="M-241.245 299.149L-204.779 644.613L127.097 877.901L157.077 507.199L-241.245 299.149Z" fill="url(#paint68_linear)"/>
<g opacity="0.51">
<path opacity="0.51" d="M63.457 642.159L51.0094 981.137L503.504 1333.61L646.914 998.49L63.457 642.159Z" fill="url(#paint69_linear)"/>
<path opacity="0.51" d="M-322.768 406.066L-274.906 727.342L35.2308 968.868L44.3474 630.416L-322.768 406.066Z" fill="url(#paint70_linear)"/>
</g>
</g>
</g>
<g opacity="0.51">
<path opacity="0.51" d="M276.994 517.189L318.544 221.854L19.9783 113.36L16.9979 387.312L276.994 517.189Z" fill="url(#paint71_linear)"/>
<path opacity="0.51" d="M629.909 693.339L740.359 375.218L333.271 227.112L289.442 523.499L629.909 693.339Z" fill="url(#paint72_linear)"/>
<path opacity="0.51" d="M317.668 814.277L360.095 589.752L85.0211 448.833L75.554 664.769L317.668 814.277Z" fill="url(#paint73_linear)"/>
<path opacity="0.51" d="M416.372 655.305L456.169 478.629L243.333 383.456L223.522 553.646L416.372 655.305Z" fill="url(#paint74_linear)"/>
<g opacity="0.51">
<path opacity="0.51" d="M122.714 599.568L140.947 327.369L-125.535 209.41L-112.387 464.607L122.714 599.568Z" fill="url(#paint75_linear)"/>
<path opacity="0.51" d="M438.988 781.151L512.796 491.95L153.921 333.152L133.935 606.053L438.988 781.151Z" fill="url(#paint76_linear)"/>
</g>
<g opacity="0.51">
<path opacity="0.51" d="M213.354 945.908L188.984 1120.66L462.831 1337.99L529.451 1169.21L213.354 945.908Z" fill="url(#paint77_linear)"/>
<path opacity="0.51" d="M-42.0842 765.552L-38.5779 940.124L178.641 1112.59L201.607 937.67L-42.0842 765.552Z" fill="url(#paint78_linear)"/>
<path opacity="0.51" d="M157.427 639.706L137.441 869.138L435.306 1076.31L506.31 843.022L157.427 639.706Z" fill="url(#paint79_linear)"/>
<path opacity="0.51" d="M88.1769 807.091L81.3395 932.411L245.963 1054.93L267.352 929.431L88.1769 807.091Z" fill="url(#paint80_linear)"/>
<g opacity="0.51">
<path opacity="0.51" d="M404.801 912.255L347.296 1138.01L730.892 1424.75L874.126 1210.92L404.801 912.255Z" fill="url(#paint81_linear)"/>
<path opacity="0.51" d="M54.5158 689.308L47.1525 913.482L333.446 1127.49L388.145 901.739L54.5158 689.308Z" fill="url(#paint82_linear)"/>
</g>
</g>
</g>
<g opacity="0.51">
<g opacity="0.51">
<g opacity="0.51">
<g opacity="0.51">
<g opacity="0.51">
<g opacity="0.85">
<g opacity="0.85">
<mask id="mask7" style="mask-type:alpha" maskUnits="userSpaceOnUse" x="-47" y="622" width="961" height="612">
<g opacity="0.85">
<g opacity="0.85">
<path opacity="0.85" d="M350.102 831.454C644.986 1012.51 930.053 1212.5 912.696 1231.95C895.866 1250.71 605.013 1084.55 328.362 904.543C104.657 758.716 -46.8178 644.438 -46.1165 624.983C-45.4153 605.352 114.124 686.679 350.102 831.454Z" fill="url(#paint83_radial)"/>
</g>
</g>
</mask>
<g mask="url(#mask7)">
<path opacity="0.85" d="M350.102 831.454C644.986 1012.51 930.053 1212.5 912.696 1231.95C895.866 1250.71 605.013 1084.55 328.362 904.543C104.657 758.716 -46.8178 644.438 -46.1165 624.983C-45.4153 605.352 114.124 686.679 350.102 831.454Z" fill="url(#paint84_radial)"/>
</g>
</g>
</g>
</g>
</g>
</g>
<g opacity="0.51">
<g opacity="0.51">
<g opacity="0.51">
<g opacity="0.85">
<g opacity="0.85">
<mask id="mask8" style="mask-type:alpha" maskUnits="userSpaceOnUse" x="-234" y="654" width="658" height="476">
<g opacity="0.85">
<g opacity="0.85">
<path opacity="0.85" d="M46.8018 825.845C244.911 964.837 430.222 1112.24 423.384 1128.02C416.722 1143.44 230.184 1023.03 40.8411 884.211C-118.873 767.304 -231.953 672.481 -233.181 656.882C-234.408 640.932 -119.224 709.289 46.8018 825.845Z" fill="url(#paint85_radial)"/>
</g>
</g>
</mask>
<g mask="url(#mask8)">
<path opacity="0.85" d="M46.8018 825.845C244.911 964.837 430.222 1112.24 423.384 1128.02C416.722 1143.44 230.184 1023.03 40.8411 884.211C-118.873 767.304 -231.953 672.481 -233.181 656.882C-234.408 640.932 -119.224 709.289 46.8018 825.845Z" fill="url(#paint86_radial)"/>
</g>
</g>
</g>
</g>
</g>
</g>
<g opacity="0.51">
<g opacity="0.51">
<g opacity="0.51">
<g opacity="0.85">
<g opacity="0.85">
<mask id="mask9" style="mask-type:alpha" maskUnits="userSpaceOnUse" x="-377" y="-30" width="880" height="345">
<g opacity="0.85">
<g opacity="0.85">
<path opacity="0.85" d="M-28.76 48.5091C242.106 139.476 513.498 266.198 501.927 304.934C490.882 342.267 221.769 268.302 -32.9676 167.344C-235.284 87.2445 -373.61 11.0007 -376.941 -17.2183C-380.097 -46.1384 -241.42 -22.6518 -28.76 48.5091Z" fill="url(#paint87_radial)"/>
</g>
</g>
</mask>
<g mask="url(#mask9)">
<path opacity="0.85" d="M-28.76 48.5091C242.106 139.476 513.498 266.198 501.927 304.934C490.882 342.267 221.769 268.302 -32.9676 167.344C-235.284 87.2445 -373.61 11.0007 -376.941 -17.2183C-380.097 -46.1384 -241.42 -22.6518 -28.76 48.5091Z" fill="url(#paint88_radial)"/>
</g>
</g>
</g>
</g>
</g>
</g>
</g>
</g>
</g>
<defs>
<radialGradient id="paint0_radial" cx="0" cy="0" r="1" gradientUnits="userSpaceOnUse" gradientTransform="translate(823.766 518.674) scale(1160.15 1177.82)">
<stop stop-color="white"/>
<stop offset="0.3585" stop-color="#FDFDFD"/>
<stop offset="0.5093" stop-color="#F6F6F6"/>
<stop offset="0.621" stop-color="#E9E9E9"/>
<stop offset="0.7136" stop-color="#D8D8D8"/>
<stop offset="0.7941" stop-color="#C1C1C1"/>
<stop offset="0.8665" stop-color="#A4A4A4"/>
<stop offset="0.9326" stop-color="#838383"/>
<stop offset="0.9921" stop-color="#5D5D5D"/>
<stop offset="1" stop-color="#575757"/>
</radialGradient>
<linearGradient id="paint1_linear" x1="1012.88" y1="722.811" x2="1216.15" y2="952.091" gradientUnits="userSpaceOnUse">
<stop stop-color="white"/>
<stop offset="1" stop-color="#E5E5E5"/>
</linearGradient>
<linearGradient id="paint2_linear" x1="890.083" y1="1001.95" x2="1064.35" y2="1198.51" gradientUnits="userSpaceOnUse">
<stop stop-color="white"/>
<stop offset="1" stop-color="#E5E5E5"/>
</linearGradient>
<linearGradient id="paint3_linear" x1="1055.9" y1="1028.04" x2="1289.76" y2="1291.82" gradientUnits="userSpaceOnUse">
<stop stop-color="white"/>
<stop offset="1" stop-color="#E5E5E5"/>
</linearGradient>
<linearGradient id="paint4_linear" x1="987.014" y1="1023.35" x2="1114.42" y2="1167.06" gradientUnits="userSpaceOnUse">
<stop stop-color="white"/>
<stop offset="1" stop-color="#E5E5E5"/>
</linearGradient>
<linearGradient id="paint5_linear" x1="1160.61" y1="591.539" x2="1440.06" y2="906.745" gradientUnits="userSpaceOnUse">
<stop stop-color="white"/>
<stop offset="1" stop-color="#E5E5E5"/>
</linearGradient>
<linearGradient id="paint6_linear" x1="963.867" y1="988.215" x2="1191.28" y2="1244.72" gradientUnits="userSpaceOnUse">
<stop stop-color="white"/>
<stop offset="1" stop-color="#E5E5E5"/>
</linearGradient>
<linearGradient id="paint7_linear" x1="1420.14" y1="1127.48" x2="1272.44" y2="960.889" gradientUnits="userSpaceOnUse">
<stop stop-color="white"/>
<stop offset="1" stop-color="#E5E5E5"/>
</linearGradient>
<linearGradient id="paint8_linear" x1="1531.06" y1="1145.59" x2="1421.19" y2="1021.67" gradientUnits="userSpaceOnUse">
<stop stop-color="white"/>
<stop offset="1" stop-color="#E5E5E5"/>
</linearGradient>
<linearGradient id="paint9_linear" x1="1530.13" y1="1169.21" x2="1349.09" y2="965.009" gradientUnits="userSpaceOnUse">
<stop stop-color="white"/>
<stop offset="1" stop-color="#E5E5E5"/>
</linearGradient>
<linearGradient id="paint10_linear" x1="1203.25" y1="536.462" x2="1361.68" y2="715.167" gradientUnits="userSpaceOnUse">
<stop stop-color="white"/>
<stop offset="1" stop-color="#E5E5E5"/>
</linearGradient>
<linearGradient id="paint11_linear" x1="1079.04" y1="785.628" x2="1219.28" y2="943.81" gradientUnits="userSpaceOnUse">
<stop stop-color="white"/>
<stop offset="1" stop-color="#E5E5E5"/>
</linearGradient>
<linearGradient id="paint12_linear" x1="1252.87" y1="749.505" x2="1429.29" y2="948.495" gradientUnits="userSpaceOnUse">
<stop stop-color="white"/>
<stop offset="1" stop-color="#E5E5E5"/>
</linearGradient>
<linearGradient id="paint13_linear" x1="1173.33" y1="781.731" x2="1273.48" y2="894.694" gradientUnits="userSpaceOnUse">
<stop stop-color="white"/>
<stop offset="1" stop-color="#E5E5E5"/>
</linearGradient>
<linearGradient id="paint14_linear" x1="1354.71" y1="398.904" x2="1561.8" y2="632.49" gradientUnits="userSpaceOnUse">
<stop stop-color="white"/>
<stop offset="1" stop-color="#E5E5E5"/>
</linearGradient>
<linearGradient id="paint15_linear" x1="1161.79" y1="745.971" x2="1338.85" y2="945.689" gradientUnits="userSpaceOnUse">
<stop stop-color="white"/>
<stop offset="1" stop-color="#E5E5E5"/>
</linearGradient>
<radialGradient id="paint16_radial" cx="0" cy="0" r="1" gradientUnits="userSpaceOnUse" gradientTransform="translate(1418.02 753.929) rotate(75.8322) scale(74.3983 470.427)">
<stop stop-color="#ACACAC"/>
<stop offset="1" stop-color="white"/>
</radialGradient>
<radialGradient id="paint17_radial" cx="0" cy="0" r="1" gradientUnits="userSpaceOnUse" gradientTransform="translate(1418.02 753.929) rotate(75.8322) scale(74.3983 470.427)">
<stop stop-color="#1E1113"/>
<stop offset="0.3778" stop-color="#201315"/>
<stop offset="0.514" stop-color="#261A1C"/>
<stop offset="0.611" stop-color="#312527"/>
<stop offset="0.6895" stop-color="#413638"/>
<stop offset="0.7567" stop-color="#564C4E"/>
<stop offset="0.8162" stop-color="#706869"/>
<stop offset="0.87" stop-color="#8F8889"/>
<stop offset="0.9195" stop-color="#B2AEAE"/>
<stop offset="0.9635" stop-color="#D9D7D7"/>
<stop offset="1" stop-color="white"/>
</radialGradient>
<radialGradient id="paint18_radial" cx="0" cy="0" r="1" gradientUnits="userSpaceOnUse" gradientTransform="translate(1184.12 890.204) rotate(75.8322) scale(38.5679 243.869)">
<stop stop-color="#ACACAC"/>
<stop offset="1" stop-color="white"/>
</radialGradient>
<radialGradient id="paint19_radial" cx="0" cy="0" r="1" gradientUnits="userSpaceOnUse" gradientTransform="translate(1184.12 890.204) rotate(75.8322) scale(38.5679 243.869)">
<stop stop-color="#1E1113"/>
<stop offset="0.3778" stop-color="#201315"/>
<stop offset="0.514" stop-color="#261A1C"/>
<stop offset="0.611" stop-color="#312527"/>
<stop offset="0.6895" stop-color="#413638"/>
<stop offset="0.7567" stop-color="#564C4E"/>
<stop offset="0.8162" stop-color="#706869"/>
<stop offset="0.87" stop-color="#8F8889"/>
<stop offset="0.9195" stop-color="#B2AEAE"/>
<stop offset="0.9635" stop-color="#D9D7D7"/>
<stop offset="1" stop-color="white"/>
</radialGradient>
<linearGradient id="paint20_linear" x1="161.211" y1="-488.429" x2="-29.4823" y2="123.882" gradientUnits="userSpaceOnUse">
<stop stop-color="white"/>
<stop offset="1" stop-color="#E5E5E5"/>
</linearGradient>
<linearGradient id="paint21_linear" x1="-53.9811" y1="-108.305" x2="-144.412" y2="182.066" gradientUnits="userSpaceOnUse">
<stop stop-color="white"/>
<stop offset="1" stop-color="#E5E5E5"/>
</linearGradient>
<linearGradient id="paint22_linear" x1="-48.4207" y1="-130.35" x2="-196.626" y2="345.533" gradientUnits="userSpaceOnUse">
<stop stop-color="white"/>
<stop offset="1" stop-color="#E5E5E5"/>
</linearGradient>
<linearGradient id="paint23_linear" x1="-14.5904" y1="1171.98" x2="99.9186" y2="804.294" gradientUnits="userSpaceOnUse">
<stop stop-color="white"/>
<stop offset="1" stop-color="#E5E5E5"/>
</linearGradient>
<linearGradient id="paint24_linear" x1="-122.965" y1="800.028" x2="8.77424" y2="377.017" gradientUnits="userSpaceOnUse">
<stop stop-color="white"/>
<stop offset="1" stop-color="#E5E5E5"/>
</linearGradient>
<linearGradient id="paint25_linear" x1="222.508" y1="1246.13" x2="379.93" y2="740.65" gradientUnits="userSpaceOnUse">
<stop stop-color="white"/>
<stop offset="1" stop-color="#E5E5E5"/>
</linearGradient>
<linearGradient id="paint26_linear" x1="-207.846" y1="893.172" x2="-79.7395" y2="481.826" gradientUnits="userSpaceOnUse">
<stop stop-color="white"/>
<stop offset="1" stop-color="#E5E5E5"/>
</linearGradient>
<linearGradient id="paint27_linear" x1="194.434" y1="167.638" x2="102.495" y2="462.851" gradientUnits="userSpaceOnUse">
<stop stop-color="white"/>
<stop offset="1" stop-color="#E5E5E5"/>
</linearGradient>
<linearGradient id="paint28_linear" x1="539.81" y1="291.532" x2="433.687" y2="632.288" gradientUnits="userSpaceOnUse">
<stop stop-color="white"/>
<stop offset="1" stop-color="#E5E5E5"/>
</linearGradient>
<linearGradient id="paint29_linear" x1="243.015" y1="497.993" x2="159.813" y2="765.153" gradientUnits="userSpaceOnUse">
<stop stop-color="white"/>
<stop offset="1" stop-color="#E5E5E5"/>
</linearGradient>
<linearGradient id="paint30_linear" x1="360.759" y1="419.977" x2="298.866" y2="618.713" gradientUnits="userSpaceOnUse">
<stop stop-color="white"/>
<stop offset="1" stop-color="#E5E5E5"/>
</linearGradient>
<linearGradient id="paint31_linear" x1="42.9869" y1="261.885" x2="-45.8315" y2="547.079" gradientUnits="userSpaceOnUse">
<stop stop-color="white"/>
<stop offset="1" stop-color="#E5E5E5"/>
</linearGradient>
<linearGradient id="paint32_linear" x1="347.498" y1="393.382" x2="245.512" y2="720.856" gradientUnits="userSpaceOnUse">
<stop stop-color="white"/>
<stop offset="1" stop-color="#E5E5E5"/>
</linearGradient>
<linearGradient id="paint33_linear" x1="299.81" y1="1287.21" x2="389.06" y2="1000.63" gradientUnits="userSpaceOnUse">
<stop stop-color="white"/>
<stop offset="1" stop-color="#E5E5E5"/>
</linearGradient>
<linearGradient id="paint34_linear" x1="28.768" y1="1065.84" x2="107.769" y2="812.17" gradientUnits="userSpaceOnUse">
<stop stop-color="white"/>
<stop offset="1" stop-color="#E5E5E5"/>
</linearGradient>
<linearGradient id="paint35_linear" x1="246.614" y1="1017.48" x2="345.995" y2="698.371" gradientUnits="userSpaceOnUse">
<stop stop-color="white"/>
<stop offset="1" stop-color="#E5E5E5"/>
</linearGradient>
<linearGradient id="paint36_linear" x1="138.823" y1="1021.62" x2="195.24" y2="840.464" gradientUnits="userSpaceOnUse">
<stop stop-color="white"/>
<stop offset="1" stop-color="#E5E5E5"/>
</linearGradient>
<linearGradient id="paint37_linear" x1="544.425" y1="1366.64" x2="661.084" y2="992.046" gradientUnits="userSpaceOnUse">
<stop stop-color="white"/>
<stop offset="1" stop-color="#E5E5E5"/>
</linearGradient>
<linearGradient id="paint38_linear" x1="144.073" y1="1068.56" x2="243.817" y2="748.28" gradientUnits="userSpaceOnUse">
<stop stop-color="white"/>
<stop offset="1" stop-color="#E5E5E5"/>
</linearGradient>
<radialGradient id="paint39_radial" cx="0" cy="0" r="1" gradientUnits="userSpaceOnUse" gradientTransform="translate(433.566 927.131) rotate(-100.095) scale(93.4984 591.327)">
<stop stop-color="#ACACAC"/>
<stop offset="1" stop-color="white"/>
</radialGradient>
<radialGradient id="paint40_radial" cx="0" cy="0" r="1" gradientUnits="userSpaceOnUse" gradientTransform="translate(433.566 927.131) rotate(-100.095) scale(93.4984 591.327)">
<stop stop-color="#1E1113"/>
<stop offset="0.3778" stop-color="#201315"/>
<stop offset="0.514" stop-color="#261A1C"/>
<stop offset="0.611" stop-color="#312527"/>
<stop offset="0.6895" stop-color="#413638"/>
<stop offset="0.7567" stop-color="#564C4E"/>
<stop offset="0.8162" stop-color="#706869"/>
<stop offset="0.87" stop-color="#8F8889"/>
<stop offset="0.9195" stop-color="#B2AEAE"/>
<stop offset="0.9635" stop-color="#D9D7D7"/>
<stop offset="1" stop-color="white"/>
</radialGradient>
<radialGradient id="paint41_radial" cx="0" cy="0" r="1" gradientUnits="userSpaceOnUse" gradientTransform="translate(95.1585 891.743) rotate(-100.095) scale(48.4693 306.542)">
<stop stop-color="#ACACAC"/>
<stop offset="1" stop-color="white"/>
</radialGradient>
<radialGradient id="paint42_radial" cx="0" cy="0" r="1" gradientUnits="userSpaceOnUse" gradientTransform="translate(95.1585 891.743) rotate(-100.095) scale(48.4693 306.542)">
<stop stop-color="#1E1113"/>
<stop offset="0.3778" stop-color="#201315"/>
<stop offset="0.514" stop-color="#261A1C"/>
<stop offset="0.611" stop-color="#312527"/>
<stop offset="0.6895" stop-color="#413638"/>
<stop offset="0.7567" stop-color="#564C4E"/>
<stop offset="0.8162" stop-color="#706869"/>
<stop offset="0.87" stop-color="#8F8889"/>
<stop offset="0.9195" stop-color="#B2AEAE"/>
<stop offset="0.9635" stop-color="#D9D7D7"/>
<stop offset="1" stop-color="white"/>
</radialGradient>
<radialGradient id="paint43_radial" cx="0" cy="0" r="1" gradientUnits="userSpaceOnUse" gradientTransform="translate(62.6306 141.539) rotate(-100.095) scale(177.566 1123.01)">
<stop stop-color="#ACACAC"/>
<stop offset="1" stop-color="white"/>
</radialGradient>
<radialGradient id="paint44_radial" cx="0" cy="0" r="1" gradientUnits="userSpaceOnUse" gradientTransform="translate(62.6306 141.539) rotate(-100.095) scale(177.566 1123.01)">
<stop stop-color="#1E1113"/>
<stop offset="0.3778" stop-color="#201315"/>
<stop offset="0.514" stop-color="#261A1C"/>
<stop offset="0.611" stop-color="#312527"/>
<stop offset="0.6895" stop-color="#413638"/>
<stop offset="0.7567" stop-color="#564C4E"/>
<stop offset="0.8162" stop-color="#706869"/>
<stop offset="0.87" stop-color="#8F8889"/>
<stop offset="0.9195" stop-color="#B2AEAE"/>
<stop offset="0.9635" stop-color="#D9D7D7"/>
<stop offset="1" stop-color="white"/>
</radialGradient>
<linearGradient id="paint45_linear" x1="1015.88" y1="722.811" x2="1219.15" y2="952.091" gradientUnits="userSpaceOnUse">
<stop stop-color="white"/>
<stop offset="1" stop-color="#E5E5E5"/>
</linearGradient>
<linearGradient id="paint46_linear" x1="893.083" y1="1001.95" x2="1067.35" y2="1198.51" gradientUnits="userSpaceOnUse">
<stop stop-color="white"/>
<stop offset="1" stop-color="#E5E5E5"/>
</linearGradient>
<linearGradient id="paint47_linear" x1="1058.9" y1="1028.04" x2="1292.76" y2="1291.82" gradientUnits="userSpaceOnUse">
<stop stop-color="white"/>
<stop offset="1" stop-color="#E5E5E5"/>
</linearGradient>
<linearGradient id="paint48_linear" x1="990.014" y1="1023.35" x2="1117.42" y2="1167.06" gradientUnits="userSpaceOnUse">
<stop stop-color="white"/>
<stop offset="1" stop-color="#E5E5E5"/>
</linearGradient>
<linearGradient id="paint49_linear" x1="1163.61" y1="591.539" x2="1443.06" y2="906.745" gradientUnits="userSpaceOnUse">
<stop stop-color="white"/>
<stop offset="1" stop-color="#E5E5E5"/>
</linearGradient>
<linearGradient id="paint50_linear" x1="966.867" y1="988.215" x2="1194.28" y2="1244.72" gradientUnits="userSpaceOnUse">
<stop stop-color="white"/>
<stop offset="1" stop-color="#E5E5E5"/>
</linearGradient>
<linearGradient id="paint51_linear" x1="1423.14" y1="1127.48" x2="1275.44" y2="960.889" gradientUnits="userSpaceOnUse">
<stop stop-color="white"/>
<stop offset="1" stop-color="#E5E5E5"/>
</linearGradient>
<linearGradient id="paint52_linear" x1="1534.06" y1="1145.59" x2="1424.19" y2="1021.67" gradientUnits="userSpaceOnUse">
<stop stop-color="white"/>
<stop offset="1" stop-color="#E5E5E5"/>
</linearGradient>
<linearGradient id="paint53_linear" x1="1533.13" y1="1169.21" x2="1352.09" y2="965.009" gradientUnits="userSpaceOnUse">
<stop stop-color="white"/>
<stop offset="1" stop-color="#E5E5E5"/>
</linearGradient>
<linearGradient id="paint54_linear" x1="1206.25" y1="536.462" x2="1364.68" y2="715.167" gradientUnits="userSpaceOnUse">
<stop stop-color="white"/>
<stop offset="1" stop-color="#E5E5E5"/>
</linearGradient>
<linearGradient id="paint55_linear" x1="1082.04" y1="785.628" x2="1222.28" y2="943.81" gradientUnits="userSpaceOnUse">
<stop stop-color="white"/>
<stop offset="1" stop-color="#E5E5E5"/>
</linearGradient>
<linearGradient id="paint56_linear" x1="1255.87" y1="749.505" x2="1432.29" y2="948.495" gradientUnits="userSpaceOnUse">
<stop stop-color="white"/>
<stop offset="1" stop-color="#E5E5E5"/>
</linearGradient>
<linearGradient id="paint57_linear" x1="1176.33" y1="781.731" x2="1276.48" y2="894.694" gradientUnits="userSpaceOnUse">
<stop stop-color="white"/>
<stop offset="1" stop-color="#E5E5E5"/>
</linearGradient>
<linearGradient id="paint58_linear" x1="1357.71" y1="398.904" x2="1564.8" y2="632.49" gradientUnits="userSpaceOnUse">
<stop stop-color="white"/>
<stop offset="1" stop-color="#E5E5E5"/>
</linearGradient>
<linearGradient id="paint59_linear" x1="1164.79" y1="745.971" x2="1341.85" y2="945.689" gradientUnits="userSpaceOnUse">
<stop stop-color="white"/>
<stop offset="1" stop-color="#E5E5E5"/>
</linearGradient>
<radialGradient id="paint60_radial" cx="0" cy="0" r="1" gradientUnits="userSpaceOnUse" gradientTransform="translate(1421.02 753.929) rotate(75.8322) scale(74.3983 470.427)">
<stop stop-color="#ACACAC"/>
<stop offset="1" stop-color="white"/>
</radialGradient>
<radialGradient id="paint61_radial" cx="0" cy="0" r="1" gradientUnits="userSpaceOnUse" gradientTransform="translate(1421.02 753.929) rotate(75.8322) scale(74.3983 470.427)">
<stop stop-color="#1E1113"/>
<stop offset="0.3778" stop-color="#201315"/>
<stop offset="0.514" stop-color="#261A1C"/>
<stop offset="0.611" stop-color="#312527"/>
<stop offset="0.6895" stop-color="#413638"/>
<stop offset="0.7567" stop-color="#564C4E"/>
<stop offset="0.8162" stop-color="#706869"/>
<stop offset="0.87" stop-color="#8F8889"/>
<stop offset="0.9195" stop-color="#B2AEAE"/>
<stop offset="0.9635" stop-color="#D9D7D7"/>
<stop offset="1" stop-color="white"/>
</radialGradient>
<radialGradient id="paint62_radial" cx="0" cy="0" r="1" gradientUnits="userSpaceOnUse" gradientTransform="translate(1187.12 890.204) rotate(75.8322) scale(38.5679 243.869)">
<stop stop-color="#ACACAC"/>
<stop offset="1" stop-color="white"/>
</radialGradient>
<radialGradient id="paint63_radial" cx="0" cy="0" r="1" gradientUnits="userSpaceOnUse" gradientTransform="translate(1187.12 890.204) rotate(75.8322) scale(38.5679 243.869)">
<stop stop-color="#1E1113"/>
<stop offset="0.3778" stop-color="#201315"/>
<stop offset="0.514" stop-color="#261A1C"/>
<stop offset="0.611" stop-color="#312527"/>
<stop offset="0.6895" stop-color="#413638"/>
<stop offset="0.7567" stop-color="#564C4E"/>
<stop offset="0.8162" stop-color="#706869"/>
<stop offset="0.87" stop-color="#8F8889"/>
<stop offset="0.9195" stop-color="#B2AEAE"/>
<stop offset="0.9635" stop-color="#D9D7D7"/>
<stop offset="1" stop-color="white"/>
</radialGradient>
<linearGradient id="paint64_linear" x1="161.211" y1="-488.429" x2="-29.4823" y2="123.882" gradientUnits="userSpaceOnUse">
<stop stop-color="white"/>
<stop offset="1" stop-color="#E5E5E5"/>
</linearGradient>
<linearGradient id="paint65_linear" x1="-53.9811" y1="-108.305" x2="-144.412" y2="182.066" gradientUnits="userSpaceOnUse">
<stop stop-color="white"/>
<stop offset="1" stop-color="#E5E5E5"/>
</linearGradient>
<linearGradient id="paint66_linear" x1="-48.4207" y1="-130.35" x2="-196.626" y2="345.533" gradientUnits="userSpaceOnUse">
<stop stop-color="white"/>
<stop offset="1" stop-color="#E5E5E5"/>
</linearGradient>
<linearGradient id="paint67_linear" x1="-14.5904" y1="1171.98" x2="99.9186" y2="804.294" gradientUnits="userSpaceOnUse">
<stop stop-color="white"/>
<stop offset="1" stop-color="#E5E5E5"/>
</linearGradient>
<linearGradient id="paint68_linear" x1="-122.965" y1="800.028" x2="8.77424" y2="377.017" gradientUnits="userSpaceOnUse">
<stop stop-color="white"/>
<stop offset="1" stop-color="#E5E5E5"/>
</linearGradient>
<linearGradient id="paint69_linear" x1="222.508" y1="1246.13" x2="379.93" y2="740.65" gradientUnits="userSpaceOnUse">
<stop stop-color="white"/>
<stop offset="1" stop-color="#E5E5E5"/>
</linearGradient>
<linearGradient id="paint70_linear" x1="-207.846" y1="893.172" x2="-79.7395" y2="481.826" gradientUnits="userSpaceOnUse">
<stop stop-color="white"/>
<stop offset="1" stop-color="#E5E5E5"/>
</linearGradient>
<linearGradient id="paint71_linear" x1="194.434" y1="167.638" x2="102.495" y2="462.851" gradientUnits="userSpaceOnUse">
<stop stop-color="white"/>
<stop offset="1" stop-color="#E5E5E5"/>
</linearGradient>
<linearGradient id="paint72_linear" x1="539.81" y1="291.532" x2="433.687" y2="632.288" gradientUnits="userSpaceOnUse">
<stop stop-color="white"/>
<stop offset="1" stop-color="#E5E5E5"/>
</linearGradient>
<linearGradient id="paint73_linear" x1="243.015" y1="497.993" x2="159.813" y2="765.153" gradientUnits="userSpaceOnUse">
<stop stop-color="white"/>
<stop offset="1" stop-color="#E5E5E5"/>
</linearGradient>
<linearGradient id="paint74_linear" x1="360.759" y1="419.977" x2="298.866" y2="618.713" gradientUnits="userSpaceOnUse">
<stop stop-color="white"/>
<stop offset="1" stop-color="#E5E5E5"/>
</linearGradient>
<linearGradient id="paint75_linear" x1="42.9869" y1="261.885" x2="-45.8315" y2="547.079" gradientUnits="userSpaceOnUse">
<stop stop-color="white"/>
<stop offset="1" stop-color="#E5E5E5"/>
</linearGradient>
<linearGradient id="paint76_linear" x1="347.498" y1="393.382" x2="245.512" y2="720.856" gradientUnits="userSpaceOnUse">
<stop stop-color="white"/>
<stop offset="1" stop-color="#E5E5E5"/>
</linearGradient>
<linearGradient id="paint77_linear" x1="299.81" y1="1287.21" x2="389.06" y2="1000.63" gradientUnits="userSpaceOnUse">
<stop stop-color="white"/>
<stop offset="1" stop-color="#E5E5E5"/>
</linearGradient>
<linearGradient id="paint78_linear" x1="28.768" y1="1065.84" x2="107.769" y2="812.17" gradientUnits="userSpaceOnUse">
<stop stop-color="white"/>
<stop offset="1" stop-color="#E5E5E5"/>
</linearGradient>
<linearGradient id="paint79_linear" x1="246.614" y1="1017.48" x2="345.995" y2="698.371" gradientUnits="userSpaceOnUse">
<stop stop-color="white"/>
<stop offset="1" stop-color="#E5E5E5"/>
</linearGradient>
<linearGradient id="paint80_linear" x1="138.823" y1="1021.62" x2="195.24" y2="840.464" gradientUnits="userSpaceOnUse">
<stop stop-color="white"/>
<stop offset="1" stop-color="#E5E5E5"/>
</linearGradient>
<linearGradient id="paint81_linear" x1="544.425" y1="1366.64" x2="661.084" y2="992.046" gradientUnits="userSpaceOnUse">
<stop stop-color="white"/>
<stop offset="1" stop-color="#E5E5E5"/>
</linearGradient>
<linearGradient id="paint82_linear" x1="144.073" y1="1068.56" x2="243.817" y2="748.28" gradientUnits="userSpaceOnUse">
<stop stop-color="white"/>
<stop offset="1" stop-color="#E5E5E5"/>
</linearGradient>
<radialGradient id="paint83_radial" cx="0" cy="0" r="1" gradientUnits="userSpaceOnUse" gradientTransform="translate(433.566 927.131) rotate(-100.095) scale(93.4984 591.327)">
<stop stop-color="#ACACAC"/>
<stop offset="1" stop-color="white"/>
</radialGradient>
<radialGradient id="paint84_radial" cx="0" cy="0" r="1" gradientUnits="userSpaceOnUse" gradientTransform="translate(433.566 927.131) rotate(-100.095) scale(93.4984 591.327)">
<stop stop-color="#1E1113"/>
<stop offset="0.3778" stop-color="#201315"/>
<stop offset="0.514" stop-color="#261A1C"/>
<stop offset="0.611" stop-color="#312527"/>
<stop offset="0.6895" stop-color="#413638"/>
<stop offset="0.7567" stop-color="#564C4E"/>
<stop offset="0.8162" stop-color="#706869"/>
<stop offset="0.87" stop-color="#8F8889"/>
<stop offset="0.9195" stop-color="#B2AEAE"/>
<stop offset="0.9635" stop-color="#D9D7D7"/>
<stop offset="1" stop-color="white"/>
</radialGradient>
<radialGradient id="paint85_radial" cx="0" cy="0" r="1" gradientUnits="userSpaceOnUse" gradientTransform="translate(95.1585 891.743) rotate(-100.095) scale(48.4693 306.542)">
<stop stop-color="#ACACAC"/>
<stop offset="1" stop-color="white"/>
</radialGradient>
<radialGradient id="paint86_radial" cx="0" cy="0" r="1" gradientUnits="userSpaceOnUse" gradientTransform="translate(95.1585 891.743) rotate(-100.095) scale(48.4693 306.542)">
<stop stop-color="#1E1113"/>
<stop offset="0.3778" stop-color="#201315"/>
<stop offset="0.514" stop-color="#261A1C"/>
<stop offset="0.611" stop-color="#312527"/>
<stop offset="0.6895" stop-color="#413638"/>
<stop offset="0.7567" stop-color="#564C4E"/>
<stop offset="0.8162" stop-color="#706869"/>
<stop offset="0.87" stop-color="#8F8889"/>
<stop offset="0.9195" stop-color="#B2AEAE"/>
<stop offset="0.9635" stop-color="#D9D7D7"/>
<stop offset="1" stop-color="white"/>
</radialGradient>
<radialGradient id="paint87_radial" cx="0" cy="0" r="1" gradientUnits="userSpaceOnUse" gradientTransform="translate(62.6306 141.539) rotate(-100.095) scale(177.566 1123.01)">
<stop stop-color="#ACACAC"/>
<stop offset="1" stop-color="white"/>
</radialGradient>
<radialGradient id="paint88_radial" cx="0" cy="0" r="1" gradientUnits="userSpaceOnUse" gradientTransform="translate(62.6306 141.539) rotate(-100.095) scale(177.566 1123.01)">
<stop stop-color="#1E1113"/>
<stop offset="0.3778" stop-color="#201315"/>
<stop offset="0.514" stop-color="#261A1C"/>
<stop offset="0.611" stop-color="#312527"/>
<stop offset="0.6895" stop-color="#413638"/>
<stop offset="0.7567" stop-color="#564C4E"/>
<stop offset="0.8162" stop-color="#706869"/>
<stop offset="0.87" stop-color="#8F8889"/>
<stop offset="0.9195" stop-color="#B2AEAE"/>
<stop offset="0.9635" stop-color="#D9D7D7"/>
<stop offset="1" stop-color="white"/>
</radialGradient>
<clipPath id="clip0">
<rect width="1440" height="1043" fill="white"/>
</clipPath>
<clipPath id="clip1">
<rect width="1440" height="1043" fill="white"/>
</clipPath>
</defs>
</svg>
