<svg width="34" height="34" viewBox="0 0 34 34" fill="none" xmlns="http://www.w3.org/2000/svg">
<path d="M32.3398 11.9531H30.0156V8.55214L21.4635 0H3.98438V11.9531H1.66016V28.9531H3.98438V34H30.0156V28.9531H32.3398V11.9531ZM22.0469 3.40099L26.6146 7.96875H22.0469V3.40099ZM5.97656 1.99219H20.0547V9.96094H28.0234V11.9531H5.97656V1.99219ZM28.0234 32.0078H5.97656V28.9531H28.0234V32.0078ZM30.3477 26.9609H3.65234V13.9453H30.3477V26.9609Z" fill="#22997B"/>
<path d="M8.5 22.1133H9.46289C11.129 22.1133 12.4844 20.7579 12.4844 19.0918C12.4844 17.4257 11.129 16.0703 9.46289 16.0703H6.50781V25.1016H8.5V22.1133ZM8.5 18.0625H9.46289C10.0305 18.0625 10.4922 18.5242 10.4922 19.0918C10.4922 19.6594 10.0305 20.1211 9.46289 20.1211H8.5V18.0625Z" fill="#22997B"/>
<path d="M20.4531 21.1172V20.0547C20.4531 17.8576 18.6659 16.0703 16.4688 16.0703H14.4766V25.1016H16.4688C18.6659 25.1016 20.4531 23.3143 20.4531 21.1172ZM16.4688 18.0625C17.5673 18.0625 18.4609 18.9561 18.4609 20.0547V21.1172C18.4609 22.2157 17.5673 23.1094 16.4688 23.1094V18.0625Z" fill="#22997B"/>
<path d="M24.5703 22.3457H26.5625V20.3535H24.5703V18.0625H27.5586V16.0703H22.5781V25.1016H24.5703V22.3457Z" fill="#22997B"/>
</svg>
