<svg width="21" height="21" viewBox="0 0 21 21" fill="none" xmlns="http://www.w3.org/2000/svg">
<path d="M20.5027 17.9614L15.6746 13.1331C16.495 11.8271 16.9711 10.2835 16.9711 8.62696C16.9711 3.94035 13.1718 0.141602 8.48536 0.141602C3.79893 0.141602 0 3.94035 0 8.62696C0 13.3137 3.79875 17.1121 8.48536 17.1121C10.2881 17.1121 11.9579 16.5485 13.332 15.5908L18.1025 20.3618C18.434 20.6929 18.8686 20.8578 19.3026 20.8578C19.7372 20.8578 20.1712 20.6929 20.5032 20.3618C21.1657 19.6986 21.1657 18.6244 20.5027 17.9614ZM8.48536 14.363C5.31776 14.363 2.74966 11.7951 2.74966 8.62731C2.74966 5.45953 5.31776 2.89144 8.48536 2.89144C11.6531 2.89144 14.2211 5.45953 14.2211 8.62731C14.2211 11.7951 11.6531 14.363 8.48536 14.363Z" fill="white"/>
</svg>
