<svg width="9" height="9" viewBox="0 0 9 9" fill="none" xmlns="http://www.w3.org/2000/svg">
<path d="M1 2.5H1.75H7.75" stroke="#22997B" stroke-width="0.75" stroke-linecap="round" stroke-linejoin="round"/>
<path d="M2.875 2.5V1.75C2.875 1.55109 2.95402 1.36032 3.09467 1.21967C3.23532 1.07902 3.42609 1 3.625 1H5.125C5.32391 1 5.51468 1.07902 5.65533 1.21967C5.79598 1.36032 5.875 1.55109 5.875 1.75V2.5M7 2.5V7.75C7 7.94891 6.92098 8.13968 6.78033 8.28033C6.63968 8.42098 6.44891 8.5 6.25 8.5H2.5C2.30109 8.5 2.11032 8.42098 1.96967 8.28033C1.82902 8.13968 1.75 7.94891 1.75 7.75V2.5H7Z" stroke="#22997B" stroke-width="0.75" stroke-linecap="round" stroke-linejoin="round"/>
<path d="M3.625 4.375V6.625" stroke="#22997B" stroke-width="0.75" stroke-linecap="round" stroke-linejoin="round"/>
<path d="M5.125 4.375V6.625" stroke="#22997B" stroke-width="0.75" stroke-linecap="round" stroke-linejoin="round"/>
</svg>
