<svg width="25" height="25" viewBox="0 0 25 25" fill="none" xmlns="http://www.w3.org/2000/svg">
<path fill-rule="evenodd" clip-rule="evenodd" d="M13.3286 1.90573C12.871 1.44809 12.129 1.44809 11.6714 1.90573L5.81198 7.76511C5.35434 8.22275 5.35434 8.96475 5.81198 9.42239C6.26963 9.88003 7.01163 9.88003 7.46927 9.42239L11.3281 5.56353V16.0156C11.3281 16.6628 11.8528 17.1875 12.5 17.1875C13.1472 17.1875 13.6719 16.6628 13.6719 16.0156V5.56353L17.5308 9.42239C17.9884 9.88003 18.7303 9.88003 19.188 9.42239C19.6456 8.96475 19.6456 8.22275 19.188 7.76511L13.3286 1.90573ZM5.85938 20.3125C5.21217 20.3125 4.6875 20.8372 4.6875 21.4844C4.6875 22.1316 5.21217 22.6562 5.85938 22.6562H19.1406C19.7878 22.6562 20.3125 22.1316 20.3125 21.4844C20.3125 20.8372 19.7878 20.3125 19.1406 20.3125H5.85938Z" fill="white"/>
</svg>
