<svg width="30" height="30" viewBox="0 0 30 30" fill="none" xmlns="http://www.w3.org/2000/svg">
<path d="M28.5352 10.5469H26.4844V7.54688L18.9375 0H3.51562V10.5469H1.46484V25.5469H3.51562V30H26.4844V25.5469H28.5352V10.5469ZM19.4531 3L23.4844 7.03125H19.4531V3ZM5.27344 1.75781H17.6953V8.78906H24.7266V10.5469H5.27344V1.75781ZM24.7266 28.2422H5.27344V25.5469H24.7266V28.2422ZM26.7773 23.7891H3.22266V12.3047H26.7773V23.7891Z" fill="#22997B"/>
<path d="M12.0879 14.2266H10.084L8.8418 16.4883L7.61719 14.2266H5.56055L7.76367 18.0879L5.47266 22.1016H7.47656L8.80664 19.6934L10.125 22.1016H12.1875L9.89648 18.0879L12.0879 14.2266Z" fill="#22997B"/>
<path d="M15.2344 14.2266H13.4355V22.1016H18.3047V20.4199H15.2344V14.2266Z" fill="#22997B"/>
<path d="M22.5059 17.3496C21.4102 16.8574 21.2168 16.7402 21.2168 16.3477C21.2168 15.9961 21.5039 15.7852 21.9785 15.7852C22.4707 15.7852 22.9746 15.9727 23.6074 16.3887L23.7246 16.4648L24.4277 14.959L24.3574 14.9062C23.6719 14.3906 22.8867 14.1387 21.9609 14.1387C20.4668 14.1387 19.4238 15.0937 19.4238 16.459C19.4238 17.8887 20.2617 18.3516 21.6445 18.9434C22.7344 19.4121 22.8574 19.6113 22.8574 19.9336C22.8574 20.209 22.7109 20.543 21.9961 20.543C21.3809 20.543 20.7832 20.3027 20.127 19.793L20.0156 19.7051L19.2012 21.1523L19.2715 21.2109C20.0273 21.8437 21.0059 22.1894 22.0195 22.1894C23.6133 22.1894 24.6445 21.2637 24.6445 19.8281C24.6445 18.5391 23.9238 17.9824 22.5059 17.3496Z" fill="#22997B"/>
</svg>
